<?xml version="1.0" encoding="UTF-8" standalone="no"?>
<!-- Created with Inkscape (http://www.inkscape.org/) -->

<svg
   width="72.153915mm"
   height="38.5732mm"
   viewBox="0 0 72.153915 38.5732"
   version="1.1"
   id="svg7328"
   xmlns="http://www.w3.org/2000/svg"
   xmlns:svg="http://www.w3.org/2000/svg">
  <defs
     id="defs7325" />
  <g
     id="layer1"
     transform="translate(-34.161937,-76.545027)">
    <g
       id="g5892"
       transform="rotate(-15,-115.51761,476.49943)">
      <g
         aria-label="DEM"
         id="text5562"
         style="font-weight:bold;font-size:10.5833px;line-height:1.25;font-family:'Open Sans';-inkscape-font-specification:'Open Sans, Bold';stroke-width:0.264583">
        <path
           d="m 134.31939,149.51132 q 0,1.86552 -1.06453,2.8577 -1.05936,0.99219 -3.0644,0.99219 h -2.1394 v -7.55507 h 2.37194 q 1.85001,0 2.8732,0.97668 1.02319,0.97668 1.02319,2.7285 z m -1.66397,0.0413 q 0,-2.43396 -2.14973,-2.43396 h -0.85266 v 4.91958 h 0.68729 q 2.3151,0 2.3151,-2.48562 z"
           id="path7527" />
        <path
           d="m 140.23633,153.36121 h -4.35114 v -7.55507 h 4.35114 v 1.31257 h -2.74918 v 1.65881 h 2.55797 v 1.31258 h -2.55797 v 1.94819 h 2.74918 z"
           id="path7529" />
        <path
           d="m 145.01121,153.36121 -1.819,-5.92727 h -0.0465 q 0.0982,1.80867 0.0982,2.41328 v 3.51399 h -1.43144 v -7.55507 h 2.18074 l 1.788,5.7774 h 0.031 l 1.89652,-5.7774 h 2.18073 v 7.55507 h -1.49344 v -3.576 q 0,-0.25322 0.005,-0.58394 0.0103,-0.33073 0.0723,-1.757 h -0.0465 l -1.9482,5.91694 z"
           id="path7531" />
      </g>
      <g
         aria-label="AND"
         id="text5562-6"
         style="font-weight:bold;font-size:10.5833px;line-height:1.25;font-family:'Open Sans';-inkscape-font-specification:'Open Sans, Bold';stroke-width:0.264583">
        <path
           d="m 132.18647,163.50864 -0.54777,-1.79834 h -2.75434 l -0.54777,1.79834 h -1.72599 l 2.6665,-7.58608 h 1.95853 l 2.67683,7.58608 z m -0.93017,-3.14192 q -0.75964,-2.44429 -0.85783,-2.76468 -0.093,-0.32039 -0.13435,-0.50643 -0.17054,0.66146 -0.97669,3.27111 z"
           id="path7520" />
        <path
           d="m 141.56572,163.50864 h -2.03605 l -3.28661,-5.7154 h -0.0465 q 0.0982,1.51412 0.0982,2.16007 v 3.55533 h -1.43144 v -7.55507 h 2.02055 l 3.28144,5.65855 h 0.0362 q -0.0775,-1.47278 -0.0775,-2.08256 v -3.57599 h 1.44177 z"
           id="path7522" />
        <path
           d="m 149.73573,159.65875 q 0,1.86552 -1.06453,2.8577 -1.05936,0.99219 -3.0644,0.99219 h -2.1394 v -7.55507 h 2.37194 q 1.85001,0 2.8732,0.97668 1.02319,0.97668 1.02319,2.7285 z m -1.66397,0.0413 q 0,-2.43396 -2.14974,-2.43396 h -0.85265 v 4.91958 h 0.68729 q 2.3151,0 2.3151,-2.48562 z"
           id="path7524" />
      </g>
      <g
         aria-label="SUP"
         id="text5562-8"
         style="font-weight:bold;font-size:10.5833px;line-height:1.25;font-family:'Open Sans';-inkscape-font-specification:'Open Sans, Bold';stroke-width:0.264583">
        <path
           d="m 180.83015,150.63218 q 0,1.02319 -0.73897,1.6123 -0.7338,0.58911 -2.04638,0.58911 -1.20922,0 -2.1394,-0.45475 v -1.48828 q 0.76481,0.34107 1.29191,0.48059 0.53227,0.13953 0.97151,0.13953 0.5271,0 0.80615,-0.20154 0.28422,-0.20153 0.28422,-0.59944 0,-0.22221 -0.12402,-0.39274 -0.12402,-0.1757 -0.3669,-0.3359 -0.23771,-0.16019 -0.97668,-0.51159 -0.69246,-0.32556 -1.0387,-0.62529 -0.34623,-0.29972 -0.55293,-0.69763 -0.20671,-0.3979 -0.20671,-0.93017 0,-1.00252 0.67696,-1.57612 0.68213,-0.57361 1.88102,-0.57361 0.58911,0 1.12137,0.13953 0.53744,0.13952 1.12138,0.39273 l -0.51676,1.2454 q -0.60462,-0.24804 -1.00252,-0.34623 -0.39274,-0.0982 -0.77515,-0.0982 -0.45475,0 -0.69763,0.21187 -0.24288,0.21187 -0.24288,0.55294 0,0.21187 0.0982,0.37206 0.0982,0.15503 0.31006,0.30489 0.21704,0.1447 1.01802,0.5271 1.05936,0.50643 1.4521,1.01803 0.39274,0.50642 0.39274,1.24539 z"
           id="path7513" />
        <path
           d="m 188.34905,145.17517 v 4.88857 q 0,0.83716 -0.37724,1.46761 -0.37207,0.63045 -1.08003,0.96635 -0.70797,0.33589 -1.67431,0.33589 -1.45727,0 -2.26342,-0.74414 -0.80615,-0.7493 -0.80615,-2.04638 v -4.8679 h 1.59679 v 4.62503 q 0,0.87332 0.3514,1.28157 0.3514,0.40824 1.16272,0.40824 0.78548,0 1.13688,-0.40824 0.35656,-0.41341 0.35656,-1.29191 v -4.61469 z"
           id="path7515" />
        <path
           d="m 191.80102,148.7305 h 0.5271 q 0.73897,0 1.10587,-0.28939 0.36691,-0.29456 0.36691,-0.85266 0,-0.56327 -0.31006,-0.83199 -0.30489,-0.26871 -0.96118,-0.26871 h -0.72864 z m 3.61734,-1.19889 q 0,1.21956 -0.76481,1.86551 -0.75964,0.64595 -2.16523,0.64595 h -0.6873 v 2.68717 h -1.60196 v -7.55507 h 2.41328 q 1.37459,0 2.08772,0.59428 0.7183,0.58911 0.7183,1.76216 z"
           id="path7517" />
      </g>
      <g
         aria-label="PLY"
         id="text5562-6-7"
         style="font-weight:bold;font-size:10.5833px;line-height:1.25;font-family:'Open Sans';-inkscape-font-specification:'Open Sans, Bold';stroke-width:0.264583">
        <path
           d="m 177.48283,158.87793 h 0.5271 q 0.73897,0 1.10587,-0.28939 0.3669,-0.29455 0.3669,-0.85266 0,-0.56327 -0.31006,-0.83199 -0.30489,-0.26871 -0.96117,-0.26871 h -0.72864 z m 3.61734,-1.19889 q 0,1.21956 -0.76481,1.86551 -0.75964,0.64595 -2.16523,0.64595 h -0.6873 v 2.68717 h -1.60196 v -7.55507 h 2.41328 q 1.37459,0 2.08772,0.59428 0.7183,0.58911 0.7183,1.76216 z"
           id="path7506" />
        <path
           d="m 182.52643,162.87767 v -7.55507 h 1.60197 v 6.23216 h 3.0644 v 1.32291 z"
           id="path7508" />
        <path
           d="m 190.85665,158.43351 1.57612,-3.11091 h 1.72599 l -2.5063,4.61469 v 2.94038 h -1.59163 v -2.8887 l -2.5063,-4.66637 h 1.73633 z"
           id="path7510" />
      </g>
      <path
         style="fill:none;stroke:#000000;stroke-width:1.2;stroke-linecap:butt;stroke-linejoin:miter;stroke-dasharray:none;stroke-opacity:1"
         d="m 126.92195,166.73156 h 70.06062"
         id="path5584" />
    </g>
    <path
       style="fill:#000000;fill-opacity:1;stroke:#000000;stroke-width:0.264583px;stroke-linecap:butt;stroke-linejoin:miter;stroke-miterlimit:4;stroke-dasharray:none;stroke-dashoffset:0;stroke-opacity:1;stop-color:#000000"
       id="path5640"
       d="m 75.943581,194.13745 6.021111,10.42887 -12.042223,0 z"
       transform="translate(-3.2134229,-89.918449)" />
    <circle
       style="fill:#000000;fill-opacity:1;stroke:#000000;stroke-width:0.264583px;stroke-linecap:butt;stroke-linejoin:miter;stroke-miterlimit:4;stroke-dasharray:none;stroke-dashoffset:0;stroke-opacity:1;stop-color:#000000"
       id="path5642"
       cx="72.641022"
       cy="105.55603"
       r="2.2283914" />
  </g>
</svg>
