<?xml version="1.0" encoding="UTF-8" standalone="no"?>
<!-- Created with Inkscape (http://www.inkscape.org/) -->

<svg
   width="65.023048mm"
   height="30.014383mm"
   viewBox="0 0 65.023048 30.014383"
   version="1.1"
   id="svg6657"
   xmlns:inkscape="http://www.inkscape.org/namespaces/inkscape"
   xmlns:sodipodi="http://sodipodi.sourceforge.net/DTD/sodipodi-0.dtd"
   xmlns="http://www.w3.org/2000/svg"
   xmlns:svg="http://www.w3.org/2000/svg">
  <sodipodi:namedview
     id="namedview6659"
     pagecolor="#ffffff"
     bordercolor="#666666"
     borderopacity="1.0"
     inkscape:showpageshadow="2"
     inkscape:pageopacity="0.0"
     inkscape:pagecheckerboard="0"
     inkscape:deskcolor="#d1d1d1"
     inkscape:document-units="px"
     showgrid="false" />
  <defs
     id="defs6654" />
  <g
     inkscape:label="Layer 1"
     inkscape:groupmode="layer"
     id="layer1"
     transform="translate(-47.354019,-45.605053)">
    <path
       style="fill:none;stroke:#000000;stroke-width:1.2;stroke-linecap:butt;stroke-linejoin:miter;stroke-dasharray:none;stroke-opacity:1"
       d="m 112.31102,46.201406 c -28.834321,3.19357 -64.208383,4.70631 -64.357012,29.41442"
       id="path4443" />
    <g
       aria-label="$"
       id="text5437"
       style="font-weight:bold;font-size:6.35px;line-height:1.25;font-family:'Open Sans';-inkscape-font-specification:'Open Sans, Bold';stroke-width:0.264583"
       transform="translate(-5.4580451,-46.983415)">
      <path
         d="m 62.215369,118.0248 q 0,0.493 -0.356568,0.79375 -0.356567,0.29766 -0.998388,0.35657 v 0.63562 h -0.424781 v -0.62322 q -0.756543,-0.0155 -1.32705,-0.26665 v -0.81855 q 0.269751,0.13332 0.648022,0.23564 0.381372,0.10232 0.679028,0.12093 v -0.96118 l -0.207739,-0.0806 q -0.613916,-0.24185 -0.871265,-0.524 -0.254248,-0.28525 -0.254248,-0.70383 0,-0.44959 0.350367,-0.73794 0.353466,-0.29146 0.982885,-0.35347 v -0.47439 h 0.424781 v 0.46199 q 0.710034,0.031 1.283642,0.28525 l -0.291455,0.72554 q -0.483691,-0.19844 -0.992187,-0.24185 v 0.91468 q 0.604614,0.23254 0.858862,0.40307 0.257348,0.17054 0.375171,0.37517 0.120923,0.20464 0.120923,0.47749 z m -0.933277,0.0465 q 0,-0.13022 -0.10542,-0.22014 -0.10542,-0.0899 -0.316259,-0.18603 v 0.77204 q 0.421679,-0.0713 0.421679,-0.36587 z m -1.246435,-1.88205 q 0,0.13642 0.09302,0.22634 0.09612,0.0868 0.306958,0.17983 v -0.72863 q -0.399975,0.0589 -0.399975,0.32246 z"
         id="path6633" />
    </g>
    <g
       aria-label="$$ "
       id="text5437-9"
       style="font-weight:bold;font-size:7.05556px;line-height:1.25;font-family:'Open Sans';-inkscape-font-specification:'Open Sans, Bold';stroke-width:0.264583"
       inkscape:transform-center-x="6.7743097"
       inkscape:transform-center-y="15.687875"
       transform="translate(-5.4580451,-46.983415)">
      <path
         d="m 80.374897,106.2241 q 0,0.62993 -0.455614,1.01423 -0.455614,0.38034 -1.275719,0.45562 v 0.81218 h -0.542775 v -0.79633 q -0.966693,-0.0198 -1.695676,-0.34072 v -1.04594 q 0.344682,0.17036 0.828029,0.30111 0.487309,0.13074 0.867647,0.15451 v -1.22818 l -0.265444,-0.10301 q -0.784449,-0.30902 -1.113283,-0.66955 -0.324872,-0.36449 -0.324872,-0.89934 0,-0.57447 0.44769,-0.94293 0.451652,-0.37241 1.255909,-0.45165 v -0.60616 h 0.542775 v 0.59031 q 0.907266,0.0396 1.64021,0.3645 l -0.372414,0.92707 q -0.618051,-0.25356 -1.267796,-0.30902 v 1.16874 q 0.772563,0.29714 1.097436,0.51505 0.328834,0.2179 0.479385,0.47938 0.154512,0.26148 0.154512,0.61013 z m -1.19252,0.0594 q 0,-0.1664 -0.134703,-0.2813 -0.134703,-0.11489 -0.40411,-0.23771 v 0.98651 q 0.538813,-0.0911 0.538813,-0.4675 z m -1.592668,-2.40485 q 0,0.17432 0.118856,0.28921 0.122818,0.11093 0.392224,0.22979 v -0.93104 q -0.51108,0.0753 -0.51108,0.41204 z"
         style="font-size:8.11389px"
         id="path6628" />
      <path
         d="m 85.006312,106.2241 q 0,0.62993 -0.455614,1.01423 -0.455614,0.38034 -1.275719,0.45562 v 0.81218 H 82.732204 V 107.7098 Q 81.76551,107.69 81.036528,107.36908 v -1.04594 q 0.344682,0.17036 0.828028,0.30111 0.487309,0.13074 0.867648,0.15451 v -1.22818 l -0.265445,-0.10301 q -0.784448,-0.30902 -1.113283,-0.66955 -0.324872,-0.36449 -0.324872,-0.89934 0,-0.57447 0.44769,-0.94293 0.451652,-0.37241 1.25591,-0.45165 v -0.60616 h 0.542775 v 0.59031 q 0.907266,0.0396 1.64021,0.3645 l -0.372415,0.92707 q -0.61805,-0.25356 -1.267795,-0.30902 v 1.16874 q 0.772562,0.29714 1.097435,0.51505 0.328834,0.2179 0.479385,0.47938 0.154513,0.26148 0.154513,0.61013 z m -1.19252,0.0594 q 0,-0.1664 -0.134704,-0.2813 -0.134703,-0.11489 -0.404109,-0.23771 v 0.98651 q 0.538813,-0.0911 0.538813,-0.4675 z m -1.592668,-2.40485 q 0,0.17432 0.118856,0.28921 0.122817,0.11093 0.392224,0.22979 v -0.93104 q -0.51108,0.0753 -0.51108,0.41204 z"
         style="font-size:8.11389px"
         id="path6630" />
    </g>
    <g
       aria-label="$$$ "
       id="text5437-9-3"
       style="font-weight:bold;font-size:7.05556px;line-height:1.25;font-family:'Open Sans';-inkscape-font-specification:'Open Sans, Bold';stroke-width:0.264583"
       inkscape:transform-center-x="6.7743097"
       inkscape:transform-center-y="15.687875"
       transform="translate(-5.4580451,-46.983415)">
      <path
         d="m 105.50931,101.16925 q 0,0.76688 -0.55466,1.23472 -0.55466,0.46302 -1.55305,0.55466 v 0.98874 h -0.66077 v -0.96945 q -1.17684,-0.0241 -2.0643,-0.41479 v -1.2733 q 0.41961,0.20739 1.00803,0.36655 0.59325,0.15917 1.05627,0.18811 v -1.49517 l -0.32315,-0.12541 q -0.95498,-0.376201 -1.3553,-0.815106 -0.3955,-0.443728 -0.3955,-1.094852 0,-0.699354 0.54502,-1.147906 0.54983,-0.453374 1.52893,-0.549837 v -0.73794 h 0.66077 v 0.718647 q 1.1045,0.04823 1.99678,0.443729 l -0.45338,1.128613 q -0.75241,-0.30868 -1.5434,-0.376204 v 1.422825 q 0.94051,0.361735 1.33601,0.627007 0.40032,0.265274 0.5836,0.583604 0.1881,0.31832 0.1881,0.74276 z m -1.45176,0.0724 q 0,-0.20258 -0.16399,-0.34245 -0.16399,-0.13987 -0.49196,-0.28939 v 1.20097 q 0.65595,-0.11094 0.65595,-0.56913 z m -1.9389,-2.927648 q 0,0.212218 0.14469,0.352089 0.14952,0.135048 0.47749,0.279742 v -1.133437 q -0.62218,0.09164 -0.62218,0.501606 z"
         style="font-size:9.87778px"
         id="path6621" />
      <path
         d="m 111.14755,101.16925 q 0,0.76688 -0.55466,1.23472 -0.55466,0.46302 -1.55305,0.55466 v 0.98874 h -0.66076 v -0.96945 q -1.17685,-0.0241 -2.06431,-0.41479 v -1.2733 q 0.41962,0.20739 1.00804,0.36655 0.59324,0.15917 1.05627,0.18811 v -1.49517 l -0.32315,-0.12541 q -0.95499,-0.376201 -1.35531,-0.815106 -0.39549,-0.443728 -0.39549,-1.094852 0,-0.699354 0.54501,-1.147906 0.54984,-0.453374 1.52894,-0.549837 v -0.73794 h 0.66076 v 0.718647 q 1.1045,0.04823 1.99678,0.443729 l -0.45337,1.128613 q -0.75241,-0.30868 -1.54341,-0.376204 v 1.422825 q 0.94052,0.361735 1.33601,0.627007 0.40032,0.265274 0.5836,0.583604 0.1881,0.31832 0.1881,0.74276 z m -1.45176,0.0724 q 0,-0.20258 -0.16399,-0.34245 -0.16398,-0.13987 -0.49196,-0.28939 v 1.20097 q 0.65595,-0.11094 0.65595,-0.56913 z m -1.9389,-2.927648 q 0,0.212218 0.14469,0.352089 0.14952,0.135048 0.4775,0.279742 v -1.133437 q -0.62219,0.09164 -0.62219,0.501606 z"
         style="font-size:9.87778px"
         id="path6623" />
      <path
         d="m 116.7858,101.16925 q 0,0.76688 -0.55466,1.23472 -0.55466,0.46302 -1.55305,0.55466 v 0.98874 h -0.66077 v -0.96945 q -1.17684,-0.0241 -2.0643,-0.41479 v -1.2733 q 0.41961,0.20739 1.00803,0.36655 0.59325,0.15917 1.05627,0.18811 v -1.49517 l -0.32315,-0.12541 q -0.95498,-0.376201 -1.3553,-0.815106 -0.3955,-0.443728 -0.3955,-1.094852 0,-0.699354 0.54502,-1.147906 0.54983,-0.453374 1.52893,-0.549837 v -0.73794 h 0.66077 v 0.718647 q 1.1045,0.04823 1.99678,0.443729 l -0.45338,1.128613 q -0.75241,-0.30868 -1.5434,-0.376204 v 1.422825 q 0.94051,0.361735 1.33601,0.627007 0.40032,0.265274 0.5836,0.583604 0.1881,0.31832 0.1881,0.74276 z m -1.45176,0.0724 q 0,-0.20258 -0.16399,-0.34245 -0.16399,-0.13987 -0.49196,-0.28939 v 1.20097 q 0.65595,-0.11094 0.65595,-0.56913 z m -1.9389,-2.927648 q 0,0.212218 0.14469,0.352089 0.14952,0.135048 0.47749,0.279742 v -1.133437 q -0.62218,0.09164 -0.62218,0.501606 z"
         style="font-size:9.87778px"
         id="path6625" />
    </g>
  </g>
</svg>
